HIERARCHY
ROOT Hips
{
	OFFSET	0.000000	0.000000	0.000000
	CHANNELS 6 Xposition Yposition Zposition Zrotation Xrotation Yrotation
	JOINT LeftUpLeg
	{
		OFFSET	12.830505	-7.049846	-1.643436
		CHANNELS 3 Zrotation Xrotation Yrotation
		JOINT LeftLeg
		{
			OFFSET	0.620834	-39.957500	-1.919341
			CHANNELS 3 Zrotation Xrotation Yrotation
			JOINT LeftFoot
			{
				OFFSET	-0.413890	-44.704761	-3.870325
				CHANNELS 3 Zrotation Xrotation Yrotation
				JOINT LeftFootHeel
				{
					OFFSET	0.164738	-8.918193	-6.555130
					CHANNELS 3 Zrotation Xrotation Yrotation
					End Site
					{
						OFFSET	-0.604053	0.000000	21.044330
					}
				}
			}
		}
	}
	JOINT RightUpLeg
	{
		OFFSET	-12.830505	-7.049846	-1.643436
		CHANNELS 3 Zrotation Xrotation Yrotation
		JOINT RightLeg
		{
			OFFSET	-0.620834	-39.957500	-1.919341
			CHANNELS 3 Zrotation Xrotation Yrotation
			JOINT RightFoot
			{
				OFFSET	0.413890	-44.704761	-3.870325
				CHANNELS 3 Zrotation Xrotation Yrotation
				JOINT RightFootHeel
				{
					OFFSET	-0.164738	-8.918193	-6.555130
					CHANNELS 3 Zrotation Xrotation Yrotation
					End Site
					{
						OFFSET	0.604053	0.000000	21.044330
					}
				}
			}
		}
	}
	JOINT Spine
	{
		OFFSET	0.000000	12.498170	1.820647
		CHANNELS 3 Zrotation Xrotation Yrotation
		JOINT Spine1
		{
			OFFSET	0.000000	7.620000	0.000000
			CHANNELS 3 Zrotation Xrotation Yrotation
			JOINT LeftShoulder
			{
				OFFSET	9.167800	29.136339	-5.551221
				CHANNELS 3 Zrotation Xrotation Yrotation
				JOINT LeftArm
				{
					OFFSET	12.133453	-3.880866	1.461963
					CHANNELS 3 Zrotation Xrotation Yrotation
					JOINT LeftForeArm
					{
						OFFSET	2.507115	-31.664908	-1.069404
						CHANNELS 3 Zrotation Xrotation Yrotation
						JOINT LeftHand
						{
							OFFSET	4.116172	-24.512624	5.009439
							CHANNELS 3 Zrotation Xrotation Yrotation
							End Site
							{
								OFFSET	-0.213136	-10.931856	2.182134
							}
						}
					}
				}
			}
			JOINT RightShoulder
			{
				OFFSET	-9.167800	29.136339	-5.551221
				CHANNELS 3 Zrotation Xrotation Yrotation
				JOINT RightArm
				{
					OFFSET	-12.133453	-3.880866	1.461963
					CHANNELS 3 Zrotation Xrotation Yrotation
					JOINT RightForeArm
					{
						OFFSET	-2.507115	-31.664908	-1.069404
						CHANNELS 3 Zrotation Xrotation Yrotation
						JOINT RightHand
						{
							OFFSET	-4.116172	-24.512624	5.009439
							CHANNELS 3 Zrotation Xrotation Yrotation
							End Site
							{
								OFFSET	0.213136	-10.931856	2.182134
							}
						}
					}
				}
			}
			JOINT Neck
			{
				OFFSET	0.000000	32.926272	-3.635654
				CHANNELS 3 Zrotation Xrotation Yrotation
				JOINT Head
				{
					OFFSET	0.000000	12.481178	4.646143
					CHANNELS 3 Zrotation Xrotation Yrotation
					End Site
					{
						OFFSET	0.000000	17.715204	-2.222063
					}
				}
			}
		}
	}
}
MOTION
Frames:     17
Frame Time: 0.016667
4.286689	101.022040	29.509991	-10.854941	-30.518990	-77.285561	41.180618	-55.321854	22.468382	78.371521	108.418114	-75.962349	3.303857	3.424940	5.269401	0.	0.	0.	-41.110435	-10.308240	-24.435390	15.135525	43.700546	-12.996221	-17.001020	-16.963551	5.556025	0.	0.	0.	0.000001	0.000000	0.000001	-5.611092	30.062815	16.202656	4.047488	-7.114233	21.251772	36.175053	47.527054	40.612518	-22.553852	-28.241535	6.056650	28.994587	3.619850	-8.404669	-13.725368	2.699891	3.856385	-76.266090	-17.128836	-40.547554	-77.423965	-113.057457	-81.185013	-11.721316	18.946291	6.179522	2.941140	23.124580	5.160236	-43.056999	-9.018370	36.118561	
2.956702	100.618285	28.462165	-9.546628	-29.802410	-77.844398	39.535664	-50.608231	23.783113	81.541138	108.115181	-77.668671	2.121640	3.543497	6.447958	0.	0.	0.	-40.949631	-11.442756	-26.746727	15.745256	45.195381	-13.877378	-17.865713	-20.201265	7.346690	0.	0.	0.	-0.000001	0.000001	0.000000	-4.368525	28.836000	16.021675	3.859656	-6.168877	20.477108	24.262190	49.041142	41.970097	-22.812189	-29.249422	9.110778	29.355501	4.463102	-10.586010	-12.087895	2.890346	2.808319	-70.766373	-13.368538	-37.459980	92.269058	-66.295708	89.672249	-9.829905	19.342911	7.820627	1.363497	20.834444	6.784407	-38.806606	-7.299526	36.232868	
2.628952	100.685655	28.482823	-8.787402	-29.760283	-78.592400	40.996117	-50.379799	25.796833	81.541138	108.115181	-77.668671	2.121640	3.543497	6.447958	0.	0.	0.	-40.952938	-12.673875	-26.315916	15.745256	45.195381	-13.877378	-17.865713	-20.201265	7.346690	0.	0.	0.	0.000001	0.000000	-0.000001	-4.913749	27.150000	16.509655	4.085293	-5.190553	21.081381	24.262190	49.041142	41.970097	-30.210129	-24.202406	3.614902	30.954889	4.278115	-11.592577	-11.047904	4.108668	1.088221	-62.615952	-10.830609	-34.654903	76.096001	-64.874146	75.679047	-10.948232	18.935926	9.801322	1.487627	20.977427	6.474133	-35.215427	-7.307383	36.292564	
3.249034	99.174962	28.841735	-8.459778	-29.666698	-78.987358	27.003635	-38.139942	20.968590	-71.675415	73.933617	78.613998	-0.311664	7.156289	3.190898	0.	0.	0.	-43.011993	-15.425954	-23.443954	22.456917	47.766178	-19.925354	-19.054405	-20.321249	5.571264	0.	0.	0.	0.000000	-0.000001	0.000000	-6.067146	26.083332	15.953955	1.411181	-6.247961	18.437597	12.897489	48.201977	36.840553	-22.668350	-32.448059	13.717112	31.626963	4.733632	-12.083832	-9.960880	5.031592	0.395026	-53.991089	-9.094029	-32.811062	59.112999	-62.231239	60.428337	-12.071232	17.676964	10.897088	3.939318	20.832830	6.772985	-36.980740	-7.933005	37.966526	
3.336591	99.150633	28.748863	-7.722815	-29.452370	-78.440613	20.202286	-32.537876	18.038271	-57.139713	73.109230	65.426491	-3.170508	9.403605	0.373990	0.	0.	0.	-42.507828	-16.189449	-21.336033	23.823179	46.929852	-23.646603	-18.625910	-19.875347	5.809087	0.	0.	0.	0.000000	0.000000	0.000001	-6.665612	25.168190	14.251735	1.577544	-5.954961	17.966608	10.268722	45.034252	30.461596	-22.154947	-33.811813	15.976336	30.712595	5.535764	-12.101021	-8.938595	5.145872	0.030759	-46.403732	-7.608640	-30.519554	45.105824	-59.054115	46.696381	-11.458314	15.962473	11.045021	2.508397	18.491201	9.700767	-34.669971	-5.493709	38.889580	
2.801019	99.154479	28.948325	-6.668093	-29.209673	-77.417885	14.967267	-27.917206	14.575908	-50.659332	70.914223	58.201321	-7.393554	12.295472	-0.498138	0.	0.	0.	-42.585369	-16.420395	-23.926182	21.470217	47.936543	-21.367252	-18.224566	-20.143616	5.774530	0.	0.	0.	-0.000001	0.000002	0.000001	-6.340734	23.636171	13.021962	1.894771	-5.027179	16.560369	8.135392	40.504742	22.527643	-20.171650	-36.140644	18.526363	28.679504	6.327895	-11.833382	-7.771569	5.973149	-0.967168	-40.782288	-4.528673	-26.873009	37.251896	-58.201237	37.270500	-10.880904	14.448760	13.327778	2.485815	18.242802	9.391973	-34.514793	-5.341847	40.291115	
2.012342	98.961313	29.129161	-5.608806	-28.824484	-76.596359	11.675738	-23.614538	11.955956	-48.863792	68.535072	55.089302	-10.976573	14.414099	-1.171538	0.	0.	0.	-42.576859	-16.959204	-26.342690	19.476397	49.379864	-18.047384	-18.308651	-20.602505	4.438099	0.	0.	0.	-0.000001	0.000000	0.000001	-5.384301	21.215946	12.236956	3.028656	-2.853366	14.730137	5.739914	35.468948	15.247527	-17.878950	-39.429985	20.382776	26.526192	6.533429	-11.300712	-6.668414	7.985505	-1.752915	-37.182182	-0.657395	-24.025127	35.958168	-57.937626	34.123295	-10.383074	13.283369	14.554104	3.510103	19.763235	7.351629	-36.100594	-6.481624	41.422779	
1.268903	98.661302	28.929670	-4.807714	-28.119539	-76.138184	9.497638	-19.111609	11.832218	-45.860218	67.868477	51.488674	-11.959097	14.378352	-3.084664	0.	0.	0.	-41.641323	-17.849092	-28.826504	16.463940	50.963810	-13.076777	-19.022615	-20.716478	2.066473	0.	0.	0.	0.000002	0.000000	-0.000001	-3.702402	18.221357	12.091128	4.193231	-0.784920	12.081716	4.191785	30.776533	9.192224	-15.926270	-43.067101	20.889803	25.153698	6.367273	-10.667932	-5.768694	10.745425	-3.100002	-35.262115	2.255681	-21.257954	38.984924	-57.669147	35.024605	-8.601367	11.959176	14.927701	3.650185	21.400387	5.420038	-37.183292	-7.263535	42.416466	
0.912425	98.277052	28.881476	-3.925284	-27.064302	-75.476830	7.691813	-15.083198	12.441187	-42.199955	68.443062	48.075783	-11.021726	12.979929	-4.683479	0.	0.	0.	-40.665569	-19.076862	-29.196218	16.263729	51.947697	-12.578987	-19.202221	-20.738066	0.687610	0.	0.	0.	-0.000001	0.000000	0.000000	-1.684718	15.552083	11.545894	4.996312	-0.044959	9.919890	3.938407	26.519396	3.793104	-13.908858	-46.865150	20.135740	24.499037	5.869823	-9.690045	-5.288981	12.571051	-4.571143	-33.982201	3.776976	-16.748890	41.498959	-58.194054	36.149979	-5.991563	10.939903	14.593578	2.473920	21.676584	4.682120	-35.815636	-6.629868	43.959347	
1.040661	97.782751	29.003593	-2.866621	-25.692667	-74.421074	5.512674	-11.975867	11.452621	-39.333347	68.128258	46.070190	-10.867659	12.099401	-3.965476	0.	0.	0.	-39.731213	-20.628111	-28.440868	17.903818	52.538349	-15.996874	-18.821156	-21.055527	0.734907	0.	0.	0.	0.000000	0.000000	-0.000004	0.654183	13.517297	10.090525	5.243587	-0.225832	8.468550	4.381166	22.355789	-0.139058	-12.248014	-50.643703	17.470427	23.515865	4.933715	-8.372947	-5.299411	12.738165	-5.841084	-32.456059	4.245714	-10.819550	42.323372	-59.014503	36.548309	-3.857371	9.929156	13.685706	1.219598	20.758167	4.576389	-35.352795	-5.527698	45.649654	
1.292489	97.194579	29.182872	-1.643099	-24.250151	-73.024826	3.164246	-9.507155	11.495958	-32.298538	67.674850	39.648155	-11.347576	11.893509	-1.894788	0.	0.	0.	-39.280598	-22.018944	-27.892231	20.420687	52.891300	-20.102617	-18.205942	-21.603888	1.211792	0.	0.	0.	0.000002	-0.000001	-0.000001	2.852371	11.921621	8.053617	5.417762	-0.633177	7.495233	4.906881	17.849230	-2.504466	-10.719419	-54.658188	13.492320	21.928885	4.019258	-7.532522	-5.660437	12.361920	-6.837201	-30.132824	4.054757	-5.518518	42.920769	-59.600800	38.028061	-1.522682	8.715835	12.733553	0.740051	19.453461	4.054614	-33.134098	-7.137475	48.389469	
1.072074	96.897175	29.567984	-0.354947	-22.745113	-71.395615	1.284527	-7.720986	12.200294	-23.860067	66.560928	31.227509	-10.582769	11.705000	0.286138	0.	0.	0.	-38.972809	-22.544441	-29.908052	20.224304	53.322601	-19.693501	-18.089182	-21.872627	0.831399	0.	0.	0.	-0.000002	0.000001	0.000000	4.672163	10.960638	5.877909	5.333832	-1.884287	6.600300	6.120364	13.901591	-3.291312	-11.239007	-60.299744	8.284646	19.794043	4.058683	-7.096393	-6.063238	11.808026	-7.606800	-27.183256	3.664619	-1.682961	43.314899	-59.879456	40.364212	2.099726	6.850547	11.719322	1.050710	17.895611	2.960754	-34.023937	-7.276166	50.463524	
1.719864	96.060753	29.528398	0.951489	-21.133865	-69.507103	0.400022	-6.518357	12.524158	-17.904177	64.385124	24.892307	-8.761063	11.242400	1.962286	0.	0.	0.	-38.843525	-24.332516	-29.999022	22.806723	54.049721	-22.565603	-17.489038	-22.089077	0.282171	0.	0.	0.	-0.000001	0.000001	0.000001	6.099844	10.933026	3.406891	4.877540	-4.669921	5.956344	8.613070	11.240892	-2.208442	-18.175777	-66.797165	-2.541854	17.946806	5.100423	-6.712452	-6.153462	11.111839	-7.320971	-24.367062	2.945880	0.949043	41.141048	-60.085468	39.641441	6.209431	4.969347	10.659871	2.030278	15.579093	2.419608	-33.433506	-9.824217	51.488762	
2.225324	95.394631	29.429557	2.017973	-19.453407	-67.450821	-0.150567	-5.914958	12.016073	-14.542057	61.646912	22.403372	-8.650440	4.987057	2.631117	0.	0.	0.	-38.444218	-25.851219	-31.683048	22.901930	55.293953	-22.451143	-17.091282	-21.850210	-0.855623	0.	0.	0.	0.000001	0.000000	-0.000001	7.248886	11.407448	0.222135	5.483920	-7.258650	6.802821	10.568192	8.275146	-0.041251	-33.713051	-72.345558	-22.254650	14.840242	7.359181	-5.983571	-5.834255	10.397482	-5.534303	-22.155342	2.368069	1.182835	38.585815	-59.252419	36.952248	8.167676	3.987361	9.190200	3.137769	13.167422	3.298524	-33.184021	-11.001194	53.036938	
2.225324	95.394631	29.429557	2.017973	-19.453407	-67.450821	-0.150567	-5.914958	12.016073	-14.542057	61.646912	22.403372	-8.650440	4.987057	2.631117	0.	0.	0.	-38.444218	-25.851219	-31.683048	22.901930	55.293953	-22.451143	-17.091282	-21.850210	-0.855623	0.	0.	0.	0.000001	0.000000	-0.000001	7.248886	11.407448	0.222135	5.483920	-7.258650	6.802821	10.568192	8.275146	-0.041251	-33.713051	-72.345558	-22.254650	14.840242	7.359181	-5.983571	-5.834255	10.397482	-5.534303	-22.155342	2.368069	1.182835	38.585815	-59.252419	36.952248	8.167676	3.987361	9.190200	3.137769	13.167422	3.298524	-33.184021	-11.001194	53.036938	
3.395628	94.139146	29.103485	3.302379	-17.227903	-63.642433	-0.428735	-6.503813	10.089625	-14.295777	58.650589	24.209854	-6.545915	-5.773138	3.271787	0.	0.	0.	-38.645458	-28.498112	-33.721935	23.954136	58.058678	-24.326385	-15.293270	-21.191910	-2.109880	0.	0.	0.	-0.000001	0.000000	-0.000001	8.580444	11.202906	-3.930284	8.767785	-6.504533	7.988972	10.488622	0.971857	3.364285	-76.874573	-76.640747	-69.932915	9.426200	11.866243	-5.188775	-4.713167	11.196548	-3.313691	-18.712505	1.271074	-1.656047	33.442070	-56.361473	29.858589	4.679126	2.787762	6.344299	3.563563	10.815318	4.403264	-31.251900	-11.732544	56.935284	
4.313106	93.188516	29.127180	3.794714	-15.760158	-60.386585	-0.759067	-7.455491	9.164194	-13.665794	58.048550	23.472475	-5.359898	-14.585630	5.842292	0.	0.	0.	-39.070404	-29.725977	-34.762177	25.138302	59.936592	-25.984417	-13.573179	-20.963242	-3.368083	0.	0.	0.	0.000001	-0.000001	-0.000002	9.763724	10.191814	-5.736276	11.416208	-4.137599	7.901359	8.637687	-5.378352	6.548276	74.851707	-107.383560	80.540733	7.959780	14.614554	-5.375642	-3.907540	13.343121	-2.885471	-16.160200	0.743261	-4.143367	28.862967	-54.938175	22.778324	0.308589	1.932388	4.065840	4.102904	10.951777	3.982941	-31.157675	-12.572393	57.258873	
